#!OML:ASF E:\pregnant2\Project 1\Capture day 1\Session 1\pregnant2.ASF
:FULLY-SPECIFIED
:DEGREES
842
root 4.04742 17.1371 44.5041 33.3852 19.62 -0.685188
lowerback -27.014 -2.94439 -1.10974
upperback -16.9819 -3.22417 1.85319
thorax -3.97205 -1.29519 1.91538
lowerneck -12.2154 -1.65172 -3.42528
upperneck 47.3665 -1.09898 0.0123838
head 21.1607 -0.928416 0.461365
rclavicle -5.74363e-014 1.94809e-014
rhumerus 68.9791 -9.23627 8.63192
rradius 41.8157
rwrist 50.3441
rhand -40.9512 -13.715
rfingers 7.12502
rthumb -13.8846 -43.2315
lclavicle -5.74363e-014 1.94809e-014
lhumerus 69.7949 9.3818 -7.86244
lradius 43.6973
lwrist -45.0709
lhand -45.0859 18.4269
lfingers 7.12502
lthumb -17.8663 47.6262
rfemur -40.0909 10.7556 16.016
rtibia 20.7781
rfoot -13.4991 -18.1555
rtoes -1.49806
lfemur -43.5961 -15.4621 -12.454
ltibia 20.986
lfoot -5.72581 15.1548
ltoes -18.0268
843
root 4.04858 17.1372 44.5042 33.3912 19.6104 -0.706532
lowerback -26.9717 -2.94792 -1.09732
upperback -16.9619 -3.23374 1.87194
thorax -3.96668 -1.3009 1.92747
lowerneck -12.24 -1.64331 -3.43433
upperneck 47.4547 -1.08005 0.015411
head 21.2367 -0.922982 0.46832
rclavicle -1.34304e-014 1.38155e-014
rhumerus 69.0716 -9.69531 8.65393
rradius 41.4137
rwrist 50.3875
rhand -40.9489 -13.5377
rfingers 7.12502
rthumb -13.8824 -43.0543
lclavicle -1.34304e-014 1.38155e-014
lhumerus 69.9213 9.8386 -7.69722
lradius 43.2795
lwrist -45.1584
lhand -44.9241 16.939
lfingers 7.12502
lthumb -17.7106 46.1525
rfemur -40.0845 10.7677 16.0261
rtibia 20.7321
rfoot -13.4736 -18.155
rtoes -1.50123
lfemur -43.6127 -15.4761 -12.4177
ltibia 20.9889
lfoot -5.72326 15.1953
ltoes -18.0198
844
root 4.04976 17.1375 44.5045 33.4005 19.5926 -0.720545
lowerback -26.9322 -2.95408 -1.09423
upperback -16.9413 -3.24477 1.8894
thorax -3.95874 -1.30672 1.94296
lowerneck -12.2692 -1.63579 -3.44708
upperneck 47.5495 -1.06329 0.0229079
head 21.32 -0.918621 0.477859
rclavicle -6.11263e-015 -4.41799e-014
rhumerus 69.1592 -10.1435 8.67044
rradius 41.0332
rwrist 50.4336
rhand -40.9585 -13.3426
rfingers 7.12502
rthumb -13.8917 -42.8586
lclavicle -6.11263e-015 -4.41799e-014
lhumerus 70.0381 10.288 -7.53038
lradius 42.8863
lwrist -45.2906
lhand -44.7924 16.1764
lfingers 7.12502
lthumb -17.5839 45.4013
rfemur -40.0816 10.7829 16.0246
rtibia 20.6907
rfoot -13.4539 -18.1533
rtoes -1.48025
lfemur -43.6189 -15.4847 -12.3963
ltibia 20.9818
lfoot -5.72236 15.2317
ltoes -18.0134
845
root 4.051 17.1379 44.5048 33.4146 19.5668 -0.725387
lowerback -26.8969 -2.9616 -1.10031
upperback -16.9191 -3.25564 1.90372
thorax -3.94699 -1.31197 1.96003
lowerneck -12.3113 -1.63114 -3.47217
upperneck 47.6557 -1.05146 0.0413511
head 21.4176 -0.917201 0.494404
rclavicle -7.29788e-014 -1.67973e-014
rhumerus 69.2345 -10.5812 8.69887
rradius 40.6768
rwrist 50.4748
rhand -40.9772 -13.127
rfingers 7.12502
rthumb -13.9096 -42.6418
lclavicle -7.29788e-014 -1.67973e-014
lhumerus 70.1445 10.7348 -7.36599
lradius 42.5183
lwrist -45.4504
lhand -44.7085 15.6701
lfingers 7.12502
lthumb -17.5031 44.9021
rfemur -40.0831 10.7968 16.0115
rtibia 20.6535
rfoot -13.4292 -18.1504
rtoes -1.52171
lfemur -43.6238 -15.4996 -12.3805
ltibia 20.9666
lfoot -5.72112 15.2743
ltoes -17.9861
846
root 4.05237 17.1385 44.5053 33.4298 19.5356 -0.724677
lowerback -26.8634 -2.96973 -1.11015
upperback -16.8967 -3.26653 1.91552
thorax -3.93404 -1.31713 1.97638
lowerneck -12.3591 -1.63178 -3.5152
upperneck 47.7708 -1.04898 0.0746063
head 21.5255 -0.920997 0.520231
rclavicle 3.89121e-014 -8.84592e-015
rhumerus 69.2961 -11.0068 8.74114
rradius 40.3459
rwrist 50.505
rhand -41.003 -12.8833
rfingers 7.12502
rthumb -13.9345 -42.3964
lclavicle 3.89121e-014 -8.84592e-015
lhumerus 70.2333 11.1732 -7.22843
lradius 42.1807
lwrist -45.6026
lhand -44.577 14.7757
lfingers 7.12502
lthumb -17.3765 44.019
rfemur -40.0849 10.8116 15.9906
rtibia 20.619
rfoot -13.4083 -18.1462
rtoes -1.54997
lfemur -43.6237 -15.5163 -12.3722
ltibia 20.9482
lfoot -5.72118 15.3196
ltoes -17.9487
